<?xml version="1.0" encoding="UTF-8"?>
<svg version="1.1" viewBox="0 0 630 280" xml:space="preserve" xmlns="http://www.w3.org/2000/svg">
<g fill="#fff" font-family="Montserrat, Poppins, 'Segoe UI', Arial, sans-serif" font-weight="800" font-size="150">
<text x="25" y="200" textLength="148" lengthAdjust="spacingAndGlyphs">m</text>
<text x="270" y="200" textLength="335" lengthAdjust="spacingAndGlyphs">pesa</text>
</g>
<path d="m196 85h48a16 16 0 0 1 16 16v129a16 16 0 0 1-16 16h-48a16 16 0 0 1-16-16v-129a16 16 0 0 1 16-16zm-1 14a8 8 0 0 0-8 8v113a8 8 0 0 0 8 8h50a8 8 0 0 0 8-8v-113a8 8 0 0 0-8-8zm16-9.5a2.5 2.5 0 0 0 0 5h18a2.5 2.5 0 0 0 0-5z" fill="#fff" fill-rule="evenodd"/>
<g transform="translate(70 14)">
<path d="m104 155c9.07-0.942 17.2-5.6 26.4-17.6 10.4 15.8 24.7 15.2 39.2 16.8-15.6 0.163-13.6 5.52-34.8 4.03-6.77-0.473-17.9-0.936-30.7-3.19z" fill="#9d4c44" fill-rule="evenodd"/>
<path d="m161 122 33.8 16.4c-24.1 26.9-58.5 25.1-90.2 16.8 17.5-0.0728 33 6.4 56.3-33.1z" fill="#ed1c24" fill-rule="evenodd"/>
</g>
</svg>
